<svg xmlns="http://www.w3.org/2000/svg" width="861.276" height="832.456" viewBox="53.623 59.211 861.276 832.456"><defs><clipPath id="a"><path fill="currentColor" d="M881.5 635q-59.5 135-184 208t-260 36.5Q302 843 216 739T115.5 495q-14.5-140 83-244T433 125.5Q570 104 709 156t185.5 198q46.5 146-13 281Z"/></clipPath></defs><path fill="url(#pattern)" d="M881.5 635q-59.5 135-184 208t-260 36.5Q302 843 216 739T115.5 495q-14.5-140 83-244T433 125.5Q570 104 709 156t185.5 198q46.5 146-13 281Z" transform="translate(-60 -60)"/><g clip-path="url(#a)"><path fill="none" stroke="#447fe0" stroke-width="20" d="M881.5 635q-59.5 135-184 208t-260 36.5Q302 843 216 739T115.5 495q-14.5-140 83-244T433 125.5Q570 104 709 156t185.5 198q46.5 146-13 281Z"/></g></svg>
