<svg xmlns="http://www.w3.org/2000/svg" width="657.9" height="646.322" viewBox="117.034 157.775 657.9 646.322"><defs><clipPath id="a"><path fill="currentColor" d="M757.5 625Q798 750 678 790t-201.5-33.5Q395 683 231 670.5t-92-144q72-131.5 153.5-188T470 203q96-79 217-20t75.5 188q-45.5 129-5 254Z"/></clipPath></defs><g clip-path="url(#a)"><path fill="none" stroke="#447fe0" stroke-width="23" d="M757.5 625Q798 750 678 790t-201.5-33.5Q395 683 231 670.5t-92-144q72-131.5 153.5-188T470 203q96-79 217-20t75.5 188q-45.5 129-5 254Z"/></g></svg>